<svg height="512pt" viewBox="0 0 512 512" width="512pt" xmlns="http://www.w3.org/2000/svg"><path d="m80 233h90v40h-90zm0-39.878906h90v-40h-90zm0-117v40h90v-40zm0 273.878906h90v-40h-90zm432-290v392c0 33.085938-26.914062 60-60 60h-392c-33.085938 0-60-26.914062-60-60v-392c0-33.085938 26.914062-60 60-60h392c33.085938 0 60 26.914062 60 60zm-452 412h150v-432h-150c-11.027344 0-20 8.972656-20 20v392c0 11.027344 8.972656 20 20 20zm412-412c0-11.027344-8.972656-20-20-20h-202v193h107.714844l-46-46 28.285156-28.285156 94.285156 94.285156-94.285156 94.285156-28.285156-28.285156 46-46h-107.714844v199h202c11.027344 0 20-8.972656 20-20zm0 0"/></svg>